<?xml version="1.0" encoding="UTF-8" standalone="no"?>
<svg xmlns="http://www.w3.org/2000/svg" version="1.1" width="1000" height="758.99463">
  <path d="m 1000,325.90288 -363.73536,0 0,-93.09988 363.73536,0 0,93.09988 z" style="fill:#e669a2;fill-rule:nonzero;stroke:none"/>
  <path d="m 952.75557,325.90288 -316.49093,0 0,-232.851606 316.49093,0 0,232.851606 z" style="fill:#f3be26;fill-rule:nonzero;stroke:none"/>
  <path d="m 821.99817,325.90288 -185.73353,0 0,-325.902841 185.73353,0 0,325.902841 z" style="fill:#ee9c34;fill-rule:nonzero;stroke:none"/>
  <path d="m 858.53875,325.90288 -222.27411,0 0,-289.537091 222.27411,0 0,289.537091 z" style="fill:#f3bc87;fill-rule:nonzero;stroke:none"/>
  <path d="m 636.21316,36.420649 0,289.452701 185.76453,0 0,-289.452701 -185.76453,0 z" style="fill:#e3721c;fill-rule:nonzero;stroke:none"/>
  <path d="m 450.0164,325.90296 186.24824,0 0,46.55479 -186.24824,0 0,-46.55479 z" style="fill:#ad1b02;fill-rule:nonzero;stroke:none"/>
  <path d="m 636.21316,92.99991 0,232.87344 222.43178,0 0,-232.87344 -222.43178,0 z" style="fill:#e88d14;fill-rule:nonzero;stroke:none"/>
  <path d="m 636.21316,92.99991 0,232.87344 185.76453,0 0,-232.87344 -185.76453,0 z" style="fill:#d85604;fill-rule:nonzero;stroke:none"/>
  <path d="m 752.41366,325.90288 -116.14902,0 0,-139.76144 116.14902,0 0,139.76144 z" style="fill:#c14303;fill-rule:nonzero;stroke:none"/>
  <path d="m 636.21316,232.86967 0,93.00368 316.6496,0 0,-93.00368 -316.6496,0 z" style="fill:#db4e18;fill-rule:nonzero;stroke:none"/>
  <path d="m 636.21316,232.86967 0,93.00368 222.43178,0 0,-93.00368 -222.43178,0 z" style="fill:#d1390d;fill-rule:nonzero;stroke:none"/>
  <path d="m 636.21316,232.86967 0,93.00368 185.76453,0 0,-93.00368 -185.76453,0 z" style="fill:#c22303;fill-rule:nonzero;stroke:none"/>
  <path d="m 636.21316,232.86967 0,93.00368 116.31531,0 0,-93.00368 -116.31531,0 z" style="fill:#ad1b02;fill-rule:nonzero;stroke:none"/>
  <g transform="translate(-128.49892,323.79178)">
    <path style="fill:#000000;fill-rule:nonzero;stroke:none" d="m 805.25948,177.45637 c -31.69014,5.6338 -48.59155,29.57747 -48.59155,71.12676 0,42.25352 22.53522,70.42254 55.63381,70.42254 16.19718,0 30.28169,-5.63381 59.85915,-20.42254 0,34.50704 0,34.50704 0,34.50704 -35.91549,16.90141 -57.04225,21.12676 -85.21127,21.12676 -31.69014,0 -54.22535,-7.74647 -71.83098,-26.76056 -18.30986,-18.30986 -28.16902,-42.25352 -28.16902,-69.71831 0,-59.85915 45.07043,-101.40845 110.56338,-101.40845 42.95775,0 73.23944,20.42254 73.23944,49.29578 0,19.01408 -14.08451,32.39436 -34.50704,32.39436 -10.56338,0 -19.01409,-3.52113 -30.98592,-9.85915"/>
    <path style="fill:#000000;fill-rule:nonzero;stroke:none" d="m 646.80878,257.73806 c 28.87324,-35.91549 39.43662,-50.70422 39.43662,-68.30986 0,-17.60563 -14.08451,-33.09859 -33.80282,-33.09859 -11.2676,0 -21.83098,6.33803 -26.76056,11.97183 0,73.94366 0,73.94366 0,73.94366 -47.1831,63.38029 -47.1831,63.38029 -47.1831,63.38029 0,-143.66198 0,-143.66198 0,-143.66198 -45.07042,0 -45.07042,0 -45.07042,0 -74.64789,123.23944 -74.64789,123.23944 -74.64789,123.23944 0,-123.23944 0,-123.23944 0,-123.23944 -25.35211,0 -25.35211,0 -25.35211,0 -68.30986,15.49296 -68.30986,15.49296 -68.30986,15.49296 0,17.60563 0,17.60563 0,17.60563 37.32394,3.52113 37.32394,3.52113 37.32394,3.52113 0,152.8169 0,152.8169 0,152.8169 47.1831,0 47.1831,0 47.1831,0 71.83099,-118.30986 71.83099,-118.30986 71.83099,-118.30986 0,118.30986 0,118.30986 0,118.30986 52.8169,0 52.8169,0 52.8169,0"/>
    <path style="fill:#000000;fill-rule:nonzero;stroke:none" d="m 222.16089,327.45637 c 5.6338,0 7.04226,0 10.56338,0 38.02817,0 59.15493,-23.23944 59.15493,-69.71831 0,-38.73239 -16.90141,-59.85915 -48.59155,-59.85915 -4.22535,0 -10.56338,0.70422 -21.12676,2.8169 l 0,126.76056 z m 0,83.09859 c 30.98592,7.04226 30.98592,7.04226 30.98592,7.04226 0,17.60563 0,17.60563 0,17.60563 -121.83099,0 -121.83099,0 -121.83099,0 0,-17.60563 0,-17.60563 0,-17.60563 28.16902,-7.04226 28.16902,-7.04226 28.16902,-7.04226 0,-212.67605 0,-212.67605 0,-212.67605 -30.98592,0 -30.98592,0 -30.98592,0 0,-17.60564 0,-17.60564 0,-17.60564 73.94366,-22.53521 73.94366,-22.53521 73.94366,-22.53521 19.71831,0 19.71831,0 19.71831,0 0,25.35211 0,25.35211 0,25.35211 34.50704,-21.12676 46.47888,-24.64788 64.78873,-24.64788 40.84507,0 71.83099,38.02817 71.83099,90.84507 0,60.56338 -41.5493,102.11267 -104.92958,102.11267 -7.04225,0 -19.01408,-0.70422 -31.69014,-1.40845"/>
  </g>
</svg>
